<svg xmlns="http://www.w3.org/2000/svg" xmlns:xlink="http://www.w3.org/1999/xlink" width="686" zoomAndPan="magnify" viewBox="0 0 514.5 533.249983" height="711" preserveAspectRatio="xMidYMid meet" version="1.0"><defs><g/><clipPath id="3c863a137b"><path d="M 27.316406 402 L 492.863281 402 L 492.863281 467 L 27.316406 467 Z M 27.316406 402 " clip-rule="nonzero"/></clipPath><clipPath id="7d65d91c9e"><path d="M 110 348.199219 L 410 348.199219 L 410 532.5 L 110 532.5 Z M 110 348.199219 " clip-rule="nonzero"/></clipPath><clipPath id="bbff009f93"><path d="M 24.257812 66 L 489.808594 66 L 489.808594 130 L 24.257812 130 Z M 24.257812 66 " clip-rule="nonzero"/></clipPath><clipPath id="444e9e6a75"><path d="M 107 0.0351562 L 407 0.0351562 L 407 184.453125 L 107 184.453125 Z M 107 0.0351562 " clip-rule="nonzero"/></clipPath></defs><g fill="#ffffff" fill-opacity="1"><g transform="translate(1.091245, 244.966304)"><g><path d="M 21.519531 -40.355469 L 4.910156 -40.355469 L 4.910156 0 L 22.945312 0 C 30.59375 0 34.535156 -6.050781 34.535156 -12.042969 C 34.535156 -15.8125 32.878906 -20.035156 28.3125 -21.976562 C 31.050781 -24.03125 32.308594 -26.941406 32.308594 -29.851562 C 32.308594 -35.160156 28.140625 -40.355469 21.519531 -40.355469 Z M 21.40625 -24.03125 L 10.617188 -24.03125 L 10.617188 -34.875 L 21.519531 -34.875 C 24.773438 -34.875 26.3125 -32.308594 26.3125 -29.625 C 26.3125 -26.886719 24.601562 -24.03125 21.40625 -24.03125 Z M 22.945312 -5.59375 L 10.617188 -5.59375 L 10.617188 -18.324219 L 22.945312 -18.324219 C 26.828125 -18.324219 28.769531 -15.125 28.769531 -11.988281 C 28.769531 -8.847656 26.828125 -5.59375 22.945312 -5.59375 Z M 22.945312 -5.59375 "/></g></g></g><g fill="#ffffff" fill-opacity="1"><g transform="translate(37.729474, 244.966304)"><g><path d="M 18.09375 -34.988281 L 25.515625 -34.988281 L 25.515625 -40.296875 L 4.910156 -40.296875 L 4.910156 -34.988281 L 12.328125 -34.988281 L 12.328125 -5.367188 L 4.910156 -5.367188 L 4.910156 0 L 25.515625 0 L 25.515625 -5.367188 L 18.09375 -5.367188 Z M 18.09375 -34.988281 "/></g></g></g><g fill="#ffffff" fill-opacity="1"><g transform="translate(68.09012, 244.966304)"><g><path d="M 1.996094 -19.976562 C 1.996094 -8.449219 11.1875 0.742188 22.71875 0.742188 C 34.25 0.742188 43.496094 -8.449219 43.496094 -19.976562 C 43.496094 -31.507812 34.25 -40.753906 22.71875 -40.753906 C 11.1875 -40.753906 1.996094 -31.507812 1.996094 -19.976562 Z M 7.933594 -19.976562 C 7.933594 -28.199219 14.5 -34.820312 22.71875 -34.820312 C 30.9375 -34.820312 37.558594 -28.199219 37.558594 -19.976562 C 37.558594 -11.757812 30.9375 -5.195312 22.71875 -5.195312 C 14.5 -5.195312 7.933594 -11.757812 7.933594 -19.976562 Z M 7.933594 -19.976562 "/></g></g></g><g fill="#ffffff" fill-opacity="1"><g transform="translate(113.973505, 244.966304)"><g><path d="M 18.09375 -34.988281 L 25.515625 -34.988281 L 25.515625 -40.296875 L 4.910156 -40.296875 L 4.910156 -34.988281 L 12.328125 -34.988281 L 12.328125 -5.367188 L 4.910156 -5.367188 L 4.910156 0 L 25.515625 0 L 25.515625 -5.367188 L 18.09375 -5.367188 Z M 18.09375 -34.988281 "/></g></g></g><g fill="#ffffff" fill-opacity="1"><g transform="translate(144.33415, 244.966304)"><g><path d="M 4.910156 -39.957031 L 4.910156 0 L 10.675781 0 L 10.675781 -27.914062 L 29.96875 0 L 34.535156 0 L 34.535156 -39.957031 L 28.824219 -39.957031 L 28.824219 -11.816406 L 9.359375 -39.957031 Z M 4.910156 -39.957031 "/></g></g></g><g fill="#ffffff" fill-opacity="1"><g transform="translate(183.768753, 244.966304)"><g><path d="M 4.910156 0 L 10.675781 0 L 10.675781 -17.523438 L 26.65625 -17.523438 L 26.65625 -22.890625 L 10.675781 -22.890625 L 10.675781 -34.703125 L 28.710938 -34.703125 L 28.710938 -40.296875 L 4.910156 -40.296875 Z M 4.910156 0 "/></g></g></g><g fill="#ffffff" fill-opacity="1"><g transform="translate(213.729921, 244.966304)"><g><path d="M 1.996094 -19.976562 C 1.996094 -8.449219 11.1875 0.742188 22.71875 0.742188 C 34.25 0.742188 43.496094 -8.449219 43.496094 -19.976562 C 43.496094 -31.507812 34.25 -40.753906 22.71875 -40.753906 C 11.1875 -40.753906 1.996094 -31.507812 1.996094 -19.976562 Z M 7.933594 -19.976562 C 7.933594 -28.199219 14.5 -34.820312 22.71875 -34.820312 C 30.9375 -34.820312 37.558594 -28.199219 37.558594 -19.976562 C 37.558594 -11.757812 30.9375 -5.195312 22.71875 -5.195312 C 14.5 -5.195312 7.933594 -11.757812 7.933594 -19.976562 Z M 7.933594 -19.976562 "/></g></g></g><g fill="#ffffff" fill-opacity="1"><g transform="translate(259.613318, 244.966304)"><g><path d="M 19.464844 -20.261719 L 12.730469 -20.261719 L 12.730469 -17.523438 L 27.285156 0 L 34.761719 0 L 22.148438 -15.011719 C 28.996094 -16.210938 32.480469 -21.578125 32.480469 -27.226562 C 32.480469 -33.5625 28.140625 -40.46875 19.464844 -40.46875 L 4.910156 -40.46875 L 4.910156 0 L 10.617188 0 L 10.617188 -34.648438 L 19.464844 -34.648438 C 24.316406 -34.648438 26.714844 -30.652344 26.714844 -27.226562 C 26.714844 -23.746094 24.316406 -20.261719 19.464844 -20.261719 Z M 19.464844 -20.261719 "/></g></g></g><g fill="#ffffff" fill-opacity="1"><g transform="translate(293.62636, 244.966304)"><g><path d="M 4.910156 0 L 10.675781 0 L 10.675781 -28.140625 L 21.121094 -12.613281 L 24.375 -12.613281 L 34.820312 -28.140625 L 34.820312 0 L 40.527344 0 L 40.527344 -39.957031 L 35.960938 -39.957031 L 22.773438 -20.550781 L 9.589844 -39.957031 L 4.910156 -39.957031 Z M 4.910156 0 "/></g></g></g><g fill="#ffffff" fill-opacity="1"><g transform="translate(338.996118, 244.966304)"><g><path d="M 9.875 -10.101562 L 26.085938 -10.101562 L 29.910156 0 L 36.074219 0 L 20.035156 -40.46875 L 15.8125 -40.46875 L -0.226562 0 L 5.992188 0 Z M 23.972656 -15.527344 L 11.988281 -15.527344 L 17.980469 -31.28125 Z M 23.972656 -15.527344 "/></g></g></g><g fill="#ffffff" fill-opacity="1"><g transform="translate(375.177789, 244.966304)"><g><path d="M 12.445312 -34.875 L 12.445312 0 L 18.207031 0 L 18.207031 -34.875 L 30.253906 -34.875 L 30.253906 -40.355469 L 0.34375 -40.355469 L 0.34375 -34.875 Z M 12.445312 -34.875 "/></g></g></g><g fill="#ffffff" fill-opacity="1"><g transform="translate(405.823794, 244.966304)"><g><path d="M 18.09375 -34.988281 L 25.515625 -34.988281 L 25.515625 -40.296875 L 4.910156 -40.296875 L 4.910156 -34.988281 L 12.328125 -34.988281 L 12.328125 -5.367188 L 4.910156 -5.367188 L 4.910156 0 L 25.515625 0 L 25.515625 -5.367188 L 18.09375 -5.367188 Z M 18.09375 -34.988281 "/></g></g></g><g fill="#ffffff" fill-opacity="1"><g transform="translate(436.184416, 244.966304)"><g><path d="M 2.226562 -19.863281 C 2.226562 -14.328125 4.625 -9.246094 8.046875 -5.59375 C 11.53125 -1.941406 16.554688 0.285156 21.976562 0.285156 C 31.28125 0.285156 38.585938 -5.878906 40.871094 -14.953125 L 35.21875 -14.953125 C 33.164062 -8.90625 28.027344 -5.421875 21.976562 -5.421875 C 18.152344 -5.421875 14.328125 -7.019531 11.816406 -9.648438 C 9.304688 -12.273438 7.820312 -15.867188 7.820312 -19.863281 C 7.820312 -23.972656 9.359375 -27.511719 11.871094 -30.136719 C 14.382812 -32.765625 18.152344 -34.589844 21.976562 -34.589844 C 27.855469 -34.589844 32.765625 -31.394531 34.875 -25.402344 L 40.585938 -25.402344 C 38.300781 -34.417969 31.109375 -40.296875 21.976562 -40.296875 C 16.554688 -40.296875 11.359375 -37.785156 7.878906 -34.191406 C 4.453125 -30.539062 2.226562 -25.515625 2.226562 -19.863281 Z M 2.226562 -19.863281 "/></g></g></g><g fill="#ffffff" fill-opacity="1"><g transform="translate(479.214369, 244.966304)"><g><path d="M 24.886719 -29.625 L 30.59375 -29.851562 C 29.566406 -37.160156 23.175781 -40.355469 17.011719 -40.355469 C 12.386719 -40.355469 7.589844 -38.527344 4.910156 -35.046875 C 3.425781 -33.105469 2.683594 -30.824219 2.683594 -28.425781 C 2.683594 -28.140625 2.738281 -27.796875 2.738281 -27.457031 L 2.738281 -27.511719 C 3.367188 -19.179688 10.675781 -17.808594 16.894531 -17.179688 C 20.890625 -16.78125 25 -16.269531 25.6875 -13.242188 C 25.800781 -12.730469 25.855469 -12.273438 25.855469 -11.871094 C 25.855469 -7.761719 21.175781 -5.367188 16.894531 -5.367188 C 13.183594 -5.367188 8.675781 -7.304688 8.277344 -11.015625 L 8.277344 -10.789062 L 8.21875 -11.644531 L 2.398438 -11.53125 L 2.453125 -10.445312 C 3.195312 -3.3125 10.675781 0.34375 16.839844 0.34375 C 24.03125 0.34375 31.679688 -4.109375 31.679688 -11.816406 C 31.679688 -12.613281 31.566406 -13.585938 31.394531 -14.441406 C 29.851562 -20.835938 23.058594 -22.261719 17.582031 -22.945312 C 13.128906 -23.347656 8.503906 -23.917969 8.503906 -28.539062 C 8.503906 -29.683594 8.789062 -30.824219 9.476562 -31.679688 C 11.128906 -33.792969 14.15625 -34.703125 16.894531 -34.703125 C 20.320312 -34.703125 24.085938 -33.164062 24.886719 -29.625 Z M 24.886719 -29.625 "/></g></g></g><g fill="#ffffff" fill-opacity="1"><g transform="translate(9.829637, 324.431786)"><g><path d="M 19.464844 -20.261719 L 12.730469 -20.261719 L 12.730469 -17.523438 L 27.285156 0 L 34.761719 0 L 22.148438 -15.011719 C 28.996094 -16.210938 32.480469 -21.578125 32.480469 -27.226562 C 32.480469 -33.5625 28.140625 -40.46875 19.464844 -40.46875 L 4.910156 -40.46875 L 4.910156 0 L 10.617188 0 L 10.617188 -34.648438 L 19.464844 -34.648438 C 24.316406 -34.648438 26.714844 -30.652344 26.714844 -27.226562 C 26.714844 -23.746094 24.316406 -20.261719 19.464844 -20.261719 Z M 19.464844 -20.261719 "/></g></g></g><g fill="#ffffff" fill-opacity="1"><g transform="translate(43.842691, 324.431786)"><g><path d="M 29.28125 -5.765625 L 10.730469 -5.765625 L 10.730469 -17.523438 L 28.824219 -17.523438 L 28.824219 -23.347656 L 10.730469 -23.347656 L 10.730469 -34.589844 L 29.226562 -34.589844 L 29.226562 -40.355469 L 4.910156 -40.355469 L 4.910156 0 L 29.28125 0 Z M 29.28125 -5.765625 "/></g></g></g><g fill="#ffffff" fill-opacity="1"><g transform="translate(75.687128, 324.431786)"><g><path d="M 24.886719 -29.625 L 30.59375 -29.851562 C 29.566406 -37.160156 23.175781 -40.355469 17.011719 -40.355469 C 12.386719 -40.355469 7.589844 -38.527344 4.910156 -35.046875 C 3.425781 -33.105469 2.683594 -30.824219 2.683594 -28.425781 C 2.683594 -28.140625 2.738281 -27.796875 2.738281 -27.457031 L 2.738281 -27.511719 C 3.367188 -19.179688 10.675781 -17.808594 16.894531 -17.179688 C 20.890625 -16.78125 25 -16.269531 25.6875 -13.242188 C 25.800781 -12.730469 25.855469 -12.273438 25.855469 -11.871094 C 25.855469 -7.761719 21.175781 -5.367188 16.894531 -5.367188 C 13.183594 -5.367188 8.675781 -7.304688 8.277344 -11.015625 L 8.277344 -10.789062 L 8.21875 -11.644531 L 2.398438 -11.53125 L 2.453125 -10.445312 C 3.195312 -3.3125 10.675781 0.34375 16.839844 0.34375 C 24.03125 0.34375 31.679688 -4.109375 31.679688 -11.816406 C 31.679688 -12.613281 31.566406 -13.585938 31.394531 -14.441406 C 29.851562 -20.835938 23.058594 -22.261719 17.582031 -22.945312 C 13.128906 -23.347656 8.503906 -23.917969 8.503906 -28.539062 C 8.503906 -29.683594 8.789062 -30.824219 9.476562 -31.679688 C 11.128906 -33.792969 14.15625 -34.703125 16.894531 -34.703125 C 20.320312 -34.703125 24.085938 -33.164062 24.886719 -29.625 Z M 24.886719 -29.625 "/></g></g></g><g fill="#ffffff" fill-opacity="1"><g transform="translate(109.643123, 324.431786)"><g><path d="M 29.28125 -5.765625 L 10.730469 -5.765625 L 10.730469 -17.523438 L 28.824219 -17.523438 L 28.824219 -23.347656 L 10.730469 -23.347656 L 10.730469 -34.589844 L 29.226562 -34.589844 L 29.226562 -40.355469 L 4.910156 -40.355469 L 4.910156 0 L 29.28125 0 Z M 29.28125 -5.765625 "/></g></g></g><g fill="#ffffff" fill-opacity="1"><g transform="translate(141.48756, 324.431786)"><g><path d="M 9.875 -10.101562 L 26.085938 -10.101562 L 29.910156 0 L 36.074219 0 L 20.035156 -40.46875 L 15.8125 -40.46875 L -0.226562 0 L 5.992188 0 Z M 23.972656 -15.527344 L 11.988281 -15.527344 L 17.980469 -31.28125 Z M 23.972656 -15.527344 "/></g></g></g><g fill="#ffffff" fill-opacity="1"><g transform="translate(177.669231, 324.431786)"><g><path d="M 19.464844 -20.261719 L 12.730469 -20.261719 L 12.730469 -17.523438 L 27.285156 0 L 34.761719 0 L 22.148438 -15.011719 C 28.996094 -16.210938 32.480469 -21.578125 32.480469 -27.226562 C 32.480469 -33.5625 28.140625 -40.46875 19.464844 -40.46875 L 4.910156 -40.46875 L 4.910156 0 L 10.617188 0 L 10.617188 -34.648438 L 19.464844 -34.648438 C 24.316406 -34.648438 26.714844 -30.652344 26.714844 -27.226562 C 26.714844 -23.746094 24.316406 -20.261719 19.464844 -20.261719 Z M 19.464844 -20.261719 "/></g></g></g><g fill="#ffffff" fill-opacity="1"><g transform="translate(211.682296, 324.431786)"><g><path d="M 2.226562 -19.863281 C 2.226562 -14.328125 4.625 -9.246094 8.046875 -5.59375 C 11.53125 -1.941406 16.554688 0.285156 21.976562 0.285156 C 31.28125 0.285156 38.585938 -5.878906 40.871094 -14.953125 L 35.21875 -14.953125 C 33.164062 -8.90625 28.027344 -5.421875 21.976562 -5.421875 C 18.152344 -5.421875 14.328125 -7.019531 11.816406 -9.648438 C 9.304688 -12.273438 7.820312 -15.867188 7.820312 -19.863281 C 7.820312 -23.972656 9.359375 -27.511719 11.871094 -30.136719 C 14.382812 -32.765625 18.152344 -34.589844 21.976562 -34.589844 C 27.855469 -34.589844 32.765625 -31.394531 34.875 -25.402344 L 40.585938 -25.402344 C 38.300781 -34.417969 31.109375 -40.296875 21.976562 -40.296875 C 16.554688 -40.296875 11.359375 -37.785156 7.878906 -34.191406 C 4.453125 -30.539062 2.226562 -25.515625 2.226562 -19.863281 Z M 2.226562 -19.863281 "/></g></g></g><g fill="#ffffff" fill-opacity="1"><g transform="translate(254.71225, 324.431786)"><g><path d="M 27.570312 -24.085938 L 10.675781 -24.085938 L 10.675781 -40.296875 L 4.910156 -40.296875 L 4.910156 0 L 10.675781 0 L 10.675781 -18.378906 L 27.570312 -18.378906 L 27.570312 0 L 33.390625 0 L 33.390625 -40.296875 L 27.570312 -40.296875 Z M 27.570312 -24.085938 "/></g></g></g><g fill="#ffffff" fill-opacity="1"><g transform="translate(293.005492, 324.431786)"><g/></g></g><g fill="#ffffff" fill-opacity="1"><g transform="translate(307.215651, 324.431786)"><g><path d="M 35.5625 -25.914062 L 41.839844 -25.914062 C 39.671875 -36.757812 30.253906 -40.585938 22.433594 -40.585938 C 11.1875 -40.585938 2.398438 -31.964844 2.398438 -19.921875 C 2.398438 -7.933594 11.015625 0.683594 22.433594 0.683594 C 29.851562 0.683594 38.1875 -4.738281 40.984375 -12.5 L 40.984375 -12.445312 C 41.554688 -13.8125 41.839844 -16.097656 42.125 -19.519531 L 20.148438 -19.519531 L 20.148438 -13.640625 L 35.21875 -13.640625 C 32.820312 -7.707031 27.457031 -4.964844 22.433594 -4.964844 C 14.441406 -4.964844 8.277344 -11.300781 8.277344 -19.921875 C 8.277344 -28.484375 14.441406 -34.703125 22.433594 -34.703125 C 27.625 -34.703125 33.90625 -32.480469 35.5625 -25.914062 Z M 35.5625 -25.914062 "/></g></g></g><g fill="#ffffff" fill-opacity="1"><g transform="translate(352.357152, 324.431786)"><g><path d="M 19.464844 -20.261719 L 12.730469 -20.261719 L 12.730469 -17.523438 L 27.285156 0 L 34.761719 0 L 22.148438 -15.011719 C 28.996094 -16.210938 32.480469 -21.578125 32.480469 -27.226562 C 32.480469 -33.5625 28.140625 -40.46875 19.464844 -40.46875 L 4.910156 -40.46875 L 4.910156 0 L 10.617188 0 L 10.617188 -34.648438 L 19.464844 -34.648438 C 24.316406 -34.648438 26.714844 -30.652344 26.714844 -27.226562 C 26.714844 -23.746094 24.316406 -20.261719 19.464844 -20.261719 Z M 19.464844 -20.261719 "/></g></g></g><g fill="#ffffff" fill-opacity="1"><g transform="translate(386.370194, 324.431786)"><g><path d="M 1.996094 -19.976562 C 1.996094 -8.449219 11.1875 0.742188 22.71875 0.742188 C 34.25 0.742188 43.496094 -8.449219 43.496094 -19.976562 C 43.496094 -31.507812 34.25 -40.753906 22.71875 -40.753906 C 11.1875 -40.753906 1.996094 -31.507812 1.996094 -19.976562 Z M 7.933594 -19.976562 C 7.933594 -28.199219 14.5 -34.820312 22.71875 -34.820312 C 30.9375 -34.820312 37.558594 -28.199219 37.558594 -19.976562 C 37.558594 -11.757812 30.9375 -5.195312 22.71875 -5.195312 C 14.5 -5.195312 7.933594 -11.757812 7.933594 -19.976562 Z M 7.933594 -19.976562 "/></g></g></g><g fill="#ffffff" fill-opacity="1"><g transform="translate(432.253569, 324.431786)"><g><path d="M 19.179688 0.398438 C 26.027344 0.398438 33.90625 -3.824219 33.90625 -11.929688 L 33.90625 -40.355469 L 28.082031 -40.355469 L 28.082031 -11.988281 C 28.082031 -7.589844 23.347656 -5.367188 19.179688 -5.367188 C 14.953125 -5.367188 10.21875 -7.535156 10.21875 -11.929688 L 10.21875 -40.355469 L 4.394531 -40.355469 L 4.394531 -11.988281 C 4.394531 -3.824219 12.15625 0.398438 19.179688 0.398438 Z M 19.179688 0.398438 "/></g></g></g><g fill="#ffffff" fill-opacity="1"><g transform="translate(470.546811, 324.431786)"><g><path d="M 19.519531 -39.957031 L 4.910156 -39.957031 L 4.910156 0 L 10.730469 0 L 10.730469 -13.300781 L 19.519531 -13.300781 C 28.140625 -13.300781 32.480469 -19.921875 32.480469 -26.597656 C 32.480469 -33.277344 28.140625 -39.957031 19.519531 -39.957031 Z M 19.519531 -19.007812 L 10.730469 -19.007812 L 10.730469 -34.132812 L 19.519531 -34.132812 C 24.375 -34.132812 26.769531 -30.367188 26.769531 -26.542969 C 26.769531 -22.773438 24.375 -19.007812 19.519531 -19.007812 Z M 19.519531 -19.007812 "/></g></g></g><path fill="#5fa7c9" d="M 177.054688 465.617188 C 178.125 467.734375 179.542969 470.335938 181.367188 473.257812 C 181.996094 474.269531 184.453125 474.796875 184.726562 473.992188 C 186.371094 469.195312 188.019531 464.394531 189.664062 459.597656 C 189.9375 458.796875 187.859375 457.765625 186.796875 458.164062 C 183.695312 459.332031 180.980469 460.367188 178.785156 461.210938 C 178.636719 461.257812 178.53125 461.351562 178.464844 461.492188 C 177.980469 462.726562 177.492188 463.960938 177.007812 465.195312 C 176.957031 465.34375 176.972656 465.484375 177.054688 465.617188 Z M 177.054688 465.617188 " fill-opacity="1" fill-rule="nonzero"/><path fill="#5fa7c9" d="M 296.648438 510.632812 C 299.097656 509.417969 301.449219 508.121094 303.699219 506.761719 C 304.0625 506.542969 304.242188 506.289062 304.203125 506.066406 C 300.640625 485.6875 297.078125 465.304688 293.511719 444.921875 C 293.429688 444.640625 293.242188 444.46875 292.949219 444.410156 C 290.972656 443.773438 288.972656 443.152344 286.964844 442.5625 C 285.945312 442.265625 284.566406 442.832031 284.652344 443.519531 C 287.539062 465.824219 290.425781 488.125 293.308594 510.429688 C 293.394531 511.117188 295.40625 511.25 296.648438 510.632812 Z M 296.648438 510.632812 " fill-opacity="1" fill-rule="nonzero"/><path fill="#5fa7c9" d="M 242.324219 517.804688 C 244.910156 518.390625 247.542969 518.855469 250.207031 519.1875 C 251.488281 519.34375 252.714844 518.984375 252.730469 518.457031 C 253.472656 491.960938 254.214844 465.464844 254.960938 438.96875 C 254.972656 438.445312 254.144531 438.027344 253.25 438.105469 C 251.386719 438.269531 249.523438 438.5 247.667969 438.789062 C 247.105469 438.878906 246.71875 439.15625 246.695312 439.496094 C 244.820312 465.3125 242.945312 491.128906 241.070312 516.945312 C 241.046875 517.285156 241.542969 517.628906 242.324219 517.804688 Z M 242.324219 517.804688 " fill-opacity="1" fill-rule="nonzero"/><path fill="#5fa7c9" d="M 216.507812 507.488281 C 218.773438 508.8125 221.140625 510.078125 223.601562 511.253906 C 224.855469 511.855469 226.828125 511.71875 226.914062 511.035156 C 229.851562 488.328125 232.789062 465.621094 235.730469 442.914062 C 235.8125 442.234375 234.46875 441.667969 233.453125 441.949219 C 231.453125 442.5 229.46875 443.082031 227.496094 443.695312 C 227.195312 443.75 227.003906 443.921875 226.914062 444.214844 C 223.269531 465.066406 219.621094 485.921875 215.976562 506.777344 C 215.933594 507.003906 216.128906 507.261719 216.507812 507.488281 Z M 216.507812 507.488281 " fill-opacity="1" fill-rule="nonzero"/><path fill="#5fa7c9" d="M 270.171875 518.992188 C 272.828125 518.613281 275.445312 518.109375 278.023438 517.476562 C 278.765625 517.292969 279.234375 516.960938 279.207031 516.632812 C 277.351562 491.023438 275.492188 465.417969 273.632812 439.8125 C 273.609375 439.480469 273.242188 439.210938 272.703125 439.113281 C 270.84375 438.78125 268.984375 438.507812 267.117188 438.296875 C 266.207031 438.195312 265.332031 438.617188 265.347656 439.15625 L 267.570312 518.273438 C 267.582031 518.8125 268.871094 519.175781 270.171875 518.992188 Z M 270.171875 518.992188 " fill-opacity="1" fill-rule="nonzero"/><path fill="#5fa7c9" d="M 55.800781 420.507812 C 58.03125 422.429688 60.3125 424.214844 62.632812 425.875 C 63.15625 426.246094 63.597656 426.355469 63.804688 426.171875 C 81.996094 410.234375 100.183594 394.296875 118.375 378.355469 C 118.582031 378.171875 118.605469 377.796875 118.425781 377.359375 C 117.632812 375.414062 116.796875 373.480469 115.921875 371.558594 C 115.46875 370.574219 114.394531 369.867188 113.917969 370.242188 C 94.070312 386.003906 74.222656 401.765625 54.371094 417.527344 C 53.894531 417.902344 54.65625 419.523438 55.800781 420.507812 Z M 55.800781 420.507812 " fill-opacity="1" fill-rule="nonzero"/><path fill="#5fa7c9" d="M 109.792969 444.039062 C 112.839844 444.402344 115.726562 444.609375 118.425781 444.703125 C 118.621094 444.730469 118.785156 444.671875 118.914062 444.523438 C 123.738281 438.027344 128.558594 431.527344 133.378906 425.027344 C 133.480469 424.867188 133.496094 424.699219 133.429688 424.523438 C 132.757812 422.101562 132.042969 419.542969 131.289062 416.890625 C 130.976562 415.785156 129.109375 414.691406 128.597656 415.316406 C 121.496094 424.015625 114.394531 432.71875 107.292969 441.417969 C 106.777344 442.050781 108.523438 443.890625 109.792969 444.039062 Z M 109.792969 444.039062 " fill-opacity="1" fill-rule="nonzero"/><path fill="#5fa7c9" d="M 81.125 436.308594 C 83.824219 437.476562 86.488281 438.488281 89.082031 439.363281 C 89.429688 439.480469 89.695312 439.460938 89.832031 439.3125 C 101.894531 426.195312 113.960938 413.078125 126.023438 399.960938 C 126.179688 399.75 126.203125 399.523438 126.097656 399.28125 C 125.425781 397.121094 124.726562 394.917969 123.992188 392.6875 C 123.636719 391.605469 122.15625 390.636719 121.632812 391.152344 C 107.417969 405.210938 93.207031 419.273438 78.992188 433.332031 C 78.464844 433.851562 79.8125 435.742188 81.125 436.308594 Z M 81.125 436.308594 " fill-opacity="1" fill-rule="nonzero"/><path fill="#5fa7c9" d="M 338.476562 471.957031 C 340.359375 468.839844 341.738281 466.175781 342.699219 464.1875 C 342.773438 464.054688 342.785156 463.917969 342.738281 463.777344 C 342.625 463.488281 342.511719 463.199219 342.398438 462.910156 C 342.335938 462.773438 342.230469 462.683594 342.089844 462.636719 C 340.042969 461.820312 337.273438 460.734375 333.984375 459.460938 C 332.921875 459.054688 330.8125 460.089844 331.085938 460.894531 C 332.433594 464.828125 333.78125 468.761719 335.132812 472.695312 C 335.40625 473.503906 337.867188 472.96875 338.476562 471.957031 Z M 338.476562 471.957031 " fill-opacity="1" fill-rule="nonzero"/><path fill="#5fa7c9" d="M 316.382812 494.941406 C 316.5625 495.710938 318.917969 495.511719 319.871094 494.632812 C 321.351562 493.277344 322.734375 491.929688 324.019531 490.613281 C 324.609375 490.007812 325.183594 489.40625 325.742188 488.804688 C 325.914062 488.660156 325.984375 488.476562 325.949219 488.253906 C 322.628906 476.441406 319.3125 464.628906 315.992188 452.820312 C 315.921875 452.621094 315.78125 452.496094 315.578125 452.4375 C 314.890625 452.179688 314.199219 451.921875 313.5 451.660156 C 311.976562 451.09375 310.394531 450.507812 308.769531 449.914062 C 307.722656 449.535156 305.960938 450.292969 306.136719 451.058594 C 309.554688 465.6875 312.96875 480.316406 316.382812 494.941406 Z M 316.382812 494.941406 " fill-opacity="1" fill-rule="nonzero"/><path fill="#5fa7c9" d="M 195.261719 490.878906 C 196.777344 492.421875 198.425781 494.003906 200.207031 495.597656 C 201.179688 496.46875 203.519531 496.660156 203.695312 495.898438 C 207.261719 480.632812 210.824219 465.367188 214.390625 450.105469 C 214.5625 449.34375 212.832031 448.589844 211.785156 448.957031 C 209.859375 449.640625 207.992188 450.3125 206.203125 450.960938 C 205.808594 451.105469 205.417969 451.246094 205.027344 451.390625 C 204.820312 451.445312 204.679688 451.574219 204.605469 451.773438 C 201.089844 464.28125 197.574219 476.789062 194.058594 489.296875 C 194.027344 489.527344 194.097656 489.714844 194.277344 489.859375 C 194.601562 490.199219 194.929688 490.539062 195.261719 490.878906 Z M 195.261719 490.878906 " fill-opacity="1" fill-rule="nonzero"/><path fill="#5fa7c9" d="M 411.167969 444.867188 C 413.488281 442.445312 411.367188 444.671875 413.675781 442.234375 C 406.132812 432.988281 398.585938 423.746094 391.039062 414.5 C 388.570312 415.949219 390.835938 414.628906 388.359375 416.058594 C 387.597656 418.664062 386.871094 421.183594 386.183594 423.585938 C 386.117188 423.765625 386.132812 423.9375 386.238281 424.097656 C 391.515625 431.21875 396.796875 438.335938 402.078125 445.453125 C 402.210938 445.601562 402.378906 445.660156 402.578125 445.628906 C 405.285156 445.503906 408.15625 445.261719 411.167969 444.867188 Z M 411.167969 444.867188 " fill-opacity="1" fill-rule="nonzero"/><path fill="#5fa7c9" d="M 441.820312 433.835938 C 427.269531 419.441406 412.714844 405.042969 398.160156 390.648438 C 397.640625 390.136719 396.183594 391.082031 395.816406 392.15625 C 395.066406 394.347656 394.351562 396.527344 393.660156 398.667969 C 393.550781 398.914062 393.574219 399.144531 393.730469 399.363281 C 406.160156 412.878906 418.589844 426.394531 431.019531 439.910156 C 431.160156 440.0625 431.433594 440.078125 431.792969 439.953125 C 434.382812 439.046875 437.03125 438.003906 439.703125 436.808594 C 441.019531 436.226562 442.34375 434.347656 441.820312 433.835938 Z M 441.820312 433.835938 " fill-opacity="1" fill-rule="nonzero"/><path fill="#5fa7c9" d="M 458.078125 426.132812 C 460.371094 424.445312 462.625 422.628906 464.816406 420.679688 C 465.941406 419.683594 466.667969 418.109375 466.199219 417.738281 C 446.171875 401.835938 426.144531 385.933594 406.117188 370.027344 C 405.648438 369.660156 404.597656 370.335938 404.136719 371.296875 C 403.226562 373.183594 402.367188 375.089844 401.550781 377.007812 C 401.355469 377.464844 401.363281 377.859375 401.582031 378.054688 C 420.003906 394.195312 438.421875 410.335938 456.84375 426.476562 C 457.0625 426.667969 457.53125 426.535156 458.078125 426.132812 Z M 458.078125 426.132812 " fill-opacity="1" fill-rule="nonzero"/><g clip-path="url(#3c863a137b)"><path fill="#004aad" d="M 440.035156 454.824219 C 458.660156 445.882812 475.355469 431.636719 487.847656 413.730469 C 489.445312 411.441406 490.980469 409.09375 492.453125 406.679688 C 490.441406 405.359375 488.433594 404.042969 486.421875 402.722656 C 485.035156 405.066406 483.554688 407.367188 481.980469 409.617188 C 460.914062 439.847656 429.058594 452.332031 406.238281 454.621094 C 382.90625 457.128906 367.707031 451.527344 367.695312 451.675781 C 363.890625 450.605469 360.152344 449.4375 356.488281 448.171875 C 349.890625 446.210938 339.496094 443.167969 327.828125 439.710938 C 316.078125 436.246094 305.371094 433.132812 295.503906 430.753906 C 282.003906 427.496094 269.847656 425.601562 257.8125 425.449219 C 245.773438 425.277344 233.570312 426.847656 219.972656 429.734375 C 210.035156 431.839844 199.234375 434.65625 187.375 437.789062 C 175.640625 440.902344 165.179688 443.640625 158.519531 445.410156 C 154.820312 446.566406 151.050781 447.625 147.210938 448.585938 C 147.1875 448.59375 147.164062 448.601562 147.136719 448.605469 L 147.136719 448.609375 C 147.125 448.601562 147.113281 448.59375 147.101562 448.585938 C 147.105469 448.609375 147.113281 448.636719 147.117188 448.660156 C 145.828125 448.527344 130.378906 454.066406 107.121094 450.203125 C 84.363281 446.617188 53.792969 433.632812 33.71875 402.828125 C 31.722656 404.136719 29.726562 405.449219 27.730469 406.761719 C 39.808594 425.1875 56.183594 440.027344 74.621094 449.582031 C 81.289062 453.0625 88.234375 455.863281 95.453125 457.984375 C 102.671875 460.105469 110.027344 461.503906 117.519531 462.183594 C 128.679688 463.210938 139.730469 462.507812 150.671875 460.074219 C 154.582031 459.007812 158.417969 457.839844 162.179688 456.574219 L 162.21875 456.59375 L 162.195312 456.519531 C 163.089844 455.953125 179.054688 451.082031 197.390625 445.105469 C 216.128906 439.332031 237.238281 432.445312 257.714844 432.609375 C 278.558594 433.023438 299.964844 440.730469 318.746094 447.121094 C 337.101562 453.714844 352.828125 458.988281 352.527344 459.171875 L 352.535156 459.167969 C 356.230469 460.535156 360.003906 461.804688 363.851562 462.980469 C 374.71875 465.738281 385.746094 466.769531 396.9375 466.078125 C 404.417969 465.625 411.785156 464.453125 419.035156 462.558594 C 426.289062 460.664062 433.289062 458.085938 440.035156 454.824219 Z M 367.6875 451.679688 L 367.691406 451.679688 Z M 367.6875 451.679688 " fill-opacity="1" fill-rule="nonzero"/></g><g clip-path="url(#7d65d91c9e)"><path fill="#5271ff" d="M 367.308594 420.167969 C 362.835938 431.644531 358.933594 441.742188 356.496094 448.167969 C 355.289062 451.839844 353.96875 455.507812 352.535156 459.167969 L 352.527344 459.171875 C 352.09375 458.976562 347.960938 474.621094 332.101562 491.371094 C 316.804688 507.929688 289.78125 525.597656 256.453125 524.949219 C 223.832031 524.707031 197.5625 507.023438 182.597656 490.339844 C 167.101562 473.464844 162.90625 457.59375 162.148438 456.621094 C 162.171875 456.609375 162.195312 456.601562 162.21875 456.59375 C 162.207031 456.585938 162.191406 456.578125 162.179688 456.574219 C 160.832031 452.847656 159.601562 449.121094 158.480469 445.386719 C 156.210938 438.886719 152.578125 428.699219 148.414062 417.121094 C 144.191406 405.425781 140.207031 394.660156 136.074219 384.839844 C 130.425781 371.394531 124.363281 359.523438 116.910156 348.195312 C 114.914062 349.503906 112.917969 350.816406 110.921875 352.125 C 123.519531 371.480469 130.363281 393.566406 136.460938 412.699219 C 142.171875 431.574219 147.136719 447.5 147.175781 448.5625 C 147.148438 448.570312 147.125 448.578125 147.101562 448.585938 L 147.136719 448.609375 C 147.144531 448.632812 147.152344 448.65625 147.15625 448.683594 C 148.230469 452.488281 149.414062 456.292969 150.714844 460.097656 C 154.796875 470.417969 160.308594 479.910156 167.253906 488.566406 C 168.585938 490.234375 169.964844 491.863281 171.386719 493.457031 C 172.8125 495.046875 174.277344 496.597656 175.785156 498.109375 C 177.292969 499.621094 178.84375 501.085938 180.433594 502.511719 C 182.019531 503.9375 183.648438 505.316406 185.316406 506.652344 C 186.980469 507.988281 188.679688 509.277344 190.417969 510.519531 C 192.15625 511.757812 193.925781 512.953125 195.726562 514.097656 C 197.53125 515.238281 199.363281 516.332031 201.226562 517.375 C 203.089844 518.417969 204.980469 519.40625 206.894531 520.347656 C 208.8125 521.285156 210.757812 522.167969 212.722656 523 C 214.6875 523.832031 216.675781 524.609375 218.6875 525.328125 C 220.695312 526.050781 222.722656 526.714844 224.769531 527.324219 C 226.816406 527.933594 228.875 528.488281 230.953125 528.984375 C 233.03125 529.480469 235.117188 529.917969 237.21875 530.296875 C 239.320312 530.679688 241.429688 531 243.546875 531.265625 C 245.667969 531.527344 247.792969 531.734375 249.921875 531.882812 C 252.050781 532.027344 254.183594 532.117188 256.316406 532.144531 C 258.453125 532.175781 260.585938 532.144531 262.71875 532.054688 C 264.851562 531.96875 266.980469 531.820312 269.105469 531.613281 C 271.230469 531.410156 273.351562 531.144531 275.460938 530.820312 C 277.570312 530.5 279.671875 530.117188 281.761719 529.679688 C 283.847656 529.238281 285.925781 528.742188 287.988281 528.191406 C 290.050781 527.636719 292.09375 527.027344 294.121094 526.363281 C 296.152344 525.695312 298.160156 524.972656 300.148438 524.195312 C 302.136719 523.417969 304.101562 522.589844 306.042969 521.703125 C 307.988281 520.816406 309.902344 519.878906 311.792969 518.886719 C 313.683594 517.898438 315.546875 516.855469 317.378906 515.761719 C 319.214844 514.667969 321.015625 513.523438 322.785156 512.328125 C 324.554688 511.136719 326.292969 509.894531 327.992188 508.605469 C 329.695312 507.316406 331.359375 505.980469 332.988281 504.601562 C 334.617188 503.21875 336.203125 501.792969 337.753906 500.324219 C 339.300781 498.855469 340.808594 497.347656 342.277344 495.792969 C 343.742188 494.242188 345.164062 492.652344 346.542969 491.019531 C 353.722656 482.546875 359.492188 473.203125 363.84375 462.984375 C 365.242188 459.21875 366.523438 455.449219 367.695312 451.675781 C 367.371094 451.796875 372.730469 436.125 378.957031 417.246094 C 385.589844 398.109375 393.09375 375.765625 406.347656 356.601562 C 407.382812 355.121094 408.449219 353.664062 409.542969 352.234375 C 407.535156 350.914062 405.523438 349.59375 403.515625 348.273438 C 402.480469 349.675781 401.46875 351.082031 400.480469 352.488281 C 392.769531 363.5 386.429688 375.121094 380.449219 388.34375 C 376.078125 398.007812 371.828125 408.621094 367.308594 420.167969 Z M 367.691406 451.679688 L 367.6875 451.679688 Z M 367.691406 451.679688 " fill-opacity="1" fill-rule="nonzero"/></g><path fill="#004aad" d="M 303.214844 441.917969 C 328.308594 450.25 352.515625 459.09375 352.527344 459.171875 L 352.535156 459.167969 C 356.230469 460.535156 360.003906 461.804688 363.851562 462.980469 C 374.71875 465.738281 385.746094 466.769531 396.9375 466.078125 C 397.089844 466.066406 397.246094 466.058594 397.402344 466.046875 C 403.578125 462.046875 409.605469 457.746094 415.480469 453.148438 C 387.210938 458.742188 367.632812 451.464844 367.695312 451.675781 C 363.890625 450.605469 360.152344 449.4375 356.488281 448.171875 C 349.890625 446.210938 339.496094 443.167969 327.828125 439.710938 C 318.21875 436.875 309.296875 434.277344 300.96875 432.125 C 301.714844 435.386719 302.464844 438.652344 303.214844 441.917969 Z M 367.691406 451.679688 L 367.6875 451.679688 Z M 367.691406 451.679688 " fill-opacity="1" fill-rule="nonzero"/><path fill="#5fa7c9" d="M 340.070312 67.039062 C 339 64.917969 337.582031 62.320312 335.753906 59.394531 C 335.128906 58.386719 332.671875 57.855469 332.398438 58.664062 C 330.75 63.460938 329.105469 68.261719 327.460938 73.058594 C 327.1875 73.859375 329.265625 74.886719 330.328125 74.492188 C 333.425781 73.320312 336.144531 72.289062 338.339844 71.441406 C 338.488281 71.398438 338.59375 71.304688 338.660156 71.160156 C 339.144531 69.929688 339.628906 68.695312 340.117188 67.460938 C 340.164062 67.3125 340.148438 67.171875 340.070312 67.039062 Z M 340.070312 67.039062 " fill-opacity="1" fill-rule="nonzero"/><path fill="#5fa7c9" d="M 220.476562 22.023438 C 218.027344 23.238281 215.671875 24.535156 213.425781 25.894531 C 213.0625 26.113281 212.878906 26.363281 212.917969 26.585938 C 216.484375 46.96875 220.046875 67.351562 223.609375 87.734375 C 223.695312 88.015625 223.882812 88.1875 224.171875 88.242188 C 226.152344 88.882812 228.152344 89.503906 230.160156 90.09375 C 231.179688 90.390625 232.558594 89.824219 232.46875 89.136719 C 229.585938 66.832031 226.699219 44.53125 223.816406 22.226562 C 223.726562 21.535156 221.71875 21.40625 220.476562 22.023438 Z M 220.476562 22.023438 " fill-opacity="1" fill-rule="nonzero"/><path fill="#5fa7c9" d="M 274.800781 14.847656 C 272.214844 14.265625 269.582031 13.800781 266.917969 13.46875 C 265.632812 13.308594 264.410156 13.671875 264.394531 14.195312 C 263.652344 40.691406 262.90625 67.1875 262.164062 93.683594 C 262.148438 94.210938 262.980469 94.625 263.875 94.546875 C 265.738281 94.386719 267.601562 94.152344 269.457031 93.863281 C 270.015625 93.777344 270.40625 93.5 270.429688 93.160156 C 272.304688 67.34375 274.179688 41.523438 276.050781 15.707031 C 276.078125 15.367188 275.578125 15.027344 274.800781 14.847656 Z M 274.800781 14.847656 " fill-opacity="1" fill-rule="nonzero"/><path fill="#5fa7c9" d="M 300.617188 25.167969 C 298.351562 23.84375 295.984375 22.578125 293.523438 21.402344 C 292.265625 20.800781 290.292969 20.9375 290.207031 21.621094 C 287.269531 44.328125 284.332031 67.035156 281.394531 89.742188 C 281.308594 90.421875 282.652344 90.988281 283.671875 90.707031 C 285.667969 90.152344 287.65625 89.570312 289.628906 88.960938 C 289.925781 88.90625 290.121094 88.734375 290.210938 88.441406 C 293.855469 67.585938 297.503906 46.730469 301.148438 25.878906 C 301.1875 25.648438 300.996094 25.390625 300.617188 25.167969 Z M 300.617188 25.167969 " fill-opacity="1" fill-rule="nonzero"/><path fill="#5fa7c9" d="M 246.953125 13.664062 C 244.296875 14.042969 241.679688 14.546875 239.101562 15.179688 C 238.359375 15.363281 237.890625 15.695312 237.914062 16.023438 C 239.773438 41.628906 241.632812 67.238281 243.492188 92.84375 C 243.515625 93.171875 243.882812 93.445312 244.417969 93.542969 C 246.277344 93.871094 248.140625 94.148438 250.003906 94.359375 C 250.917969 94.460938 251.789062 94.039062 251.777344 93.5 L 249.554688 14.382812 C 249.539062 13.839844 248.253906 13.480469 246.953125 13.664062 Z M 246.953125 13.664062 " fill-opacity="1" fill-rule="nonzero"/><path fill="#5fa7c9" d="M 461.320312 112.148438 C 459.09375 110.226562 456.808594 108.4375 454.492188 106.78125 C 453.96875 106.40625 453.527344 106.300781 453.316406 106.484375 C 435.128906 122.421875 416.9375 138.359375 398.75 154.300781 C 398.539062 154.484375 398.519531 154.855469 398.699219 155.296875 C 399.492188 157.242188 400.328125 159.175781 401.203125 161.097656 C 401.652344 162.078125 402.726562 162.789062 403.207031 162.414062 C 423.054688 146.652344 442.902344 130.890625 462.75 115.128906 C 463.230469 114.753906 462.464844 113.132812 461.320312 112.148438 Z M 461.320312 112.148438 " fill-opacity="1" fill-rule="nonzero"/><path fill="#5fa7c9" d="M 407.328125 88.617188 C 404.285156 88.25 401.398438 88.042969 398.699219 87.953125 C 398.503906 87.925781 398.339844 87.984375 398.207031 88.132812 C 393.386719 94.628906 388.566406 101.128906 383.746094 107.628906 C 383.644531 107.785156 383.628906 107.953125 383.691406 108.132812 C 384.363281 110.554688 385.082031 113.109375 385.835938 115.765625 C 386.148438 116.867188 388.011719 117.964844 388.527344 117.339844 C 395.628906 108.636719 402.730469 99.9375 409.832031 91.234375 C 410.347656 90.605469 408.601562 88.761719 407.328125 88.617188 Z M 407.328125 88.617188 " fill-opacity="1" fill-rule="nonzero"/><path fill="#5fa7c9" d="M 436 96.347656 C 433.300781 95.179688 430.636719 94.167969 428.042969 93.292969 C 427.695312 93.175781 427.429688 93.195312 427.292969 93.34375 C 415.226562 106.460938 403.164062 119.578125 391.101562 132.695312 C 390.945312 132.90625 390.921875 133.132812 391.027344 133.375 C 391.699219 135.535156 392.398438 137.738281 393.132812 139.96875 C 393.488281 141.046875 394.96875 142.019531 395.492188 141.503906 C 409.703125 127.445312 423.917969 113.382812 438.132812 99.320312 C 438.65625 98.804688 437.3125 96.910156 436 96.347656 Z M 436 96.347656 " fill-opacity="1" fill-rule="nonzero"/><path fill="#5fa7c9" d="M 178.648438 60.699219 C 176.761719 63.816406 175.382812 66.480469 174.425781 68.46875 C 174.351562 68.601562 174.339844 68.738281 174.386719 68.878906 C 174.5 69.167969 174.613281 69.457031 174.726562 69.742188 C 174.789062 69.878906 174.890625 69.972656 175.035156 70.019531 C 177.082031 70.835938 179.847656 71.921875 183.140625 73.195312 C 184.199219 73.601562 186.3125 72.566406 186.039062 71.761719 C 184.691406 67.828125 183.339844 63.894531 181.992188 59.960938 C 181.71875 59.148438 179.253906 59.6875 178.648438 60.699219 Z M 178.648438 60.699219 " fill-opacity="1" fill-rule="nonzero"/><path fill="#5fa7c9" d="M 200.738281 37.714844 C 200.5625 36.945312 198.203125 37.144531 197.253906 38.023438 C 195.773438 39.378906 194.390625 40.722656 193.105469 42.042969 C 192.515625 42.644531 191.941406 43.25 191.378906 43.851562 C 191.207031 43.996094 191.140625 44.179688 191.175781 44.402344 C 194.492188 56.214844 197.8125 68.023438 201.132812 79.835938 C 201.203125 80.03125 201.339844 80.160156 201.542969 80.214844 C 202.230469 80.472656 202.925781 80.734375 203.625 80.992188 C 205.148438 81.5625 206.730469 82.144531 208.355469 82.742188 C 209.402344 83.121094 211.164062 82.359375 210.988281 81.59375 C 207.570312 66.96875 204.15625 52.339844 200.738281 37.714844 Z M 200.738281 37.714844 " fill-opacity="1" fill-rule="nonzero"/><path fill="#5fa7c9" d="M 321.859375 41.777344 C 320.347656 40.234375 318.699219 38.648438 316.914062 37.058594 C 315.945312 36.1875 313.601562 35.992188 313.429688 36.757812 C 309.863281 52.023438 306.300781 67.285156 302.734375 82.550781 C 302.558594 83.308594 304.292969 84.066406 305.335938 83.699219 C 307.265625 83.015625 309.132812 82.34375 310.921875 81.695312 C 311.316406 81.550781 311.707031 81.40625 312.097656 81.265625 C 312.304688 81.210938 312.445312 81.082031 312.519531 80.878906 C 316.035156 68.371094 319.550781 55.867188 323.0625 43.359375 C 323.097656 43.128906 323.027344 42.941406 322.847656 42.796875 C 322.523438 42.457031 322.195312 42.117188 321.859375 41.777344 Z M 321.859375 41.777344 " fill-opacity="1" fill-rule="nonzero"/><path fill="#5fa7c9" d="M 105.957031 87.789062 C 103.632812 90.210938 105.757812 87.984375 103.449219 90.421875 C 110.992188 99.664062 118.539062 108.910156 126.082031 118.15625 C 128.554688 116.707031 126.289062 118.027344 128.765625 116.59375 C 129.523438 113.992188 130.25 111.472656 130.9375 109.070312 C 131.007812 108.890625 130.988281 108.71875 130.886719 108.554688 C 125.605469 101.4375 120.328125 94.320312 115.046875 87.203125 C 114.910156 87.054688 114.742188 86.996094 114.542969 87.027344 C 111.839844 87.152344 108.96875 87.394531 105.957031 87.789062 Z M 105.957031 87.789062 " fill-opacity="1" fill-rule="nonzero"/><path fill="#5fa7c9" d="M 75.304688 98.816406 C 89.855469 113.214844 104.410156 127.613281 118.964844 142.007812 C 119.480469 142.515625 120.941406 141.570312 121.308594 140.5 C 122.058594 138.304688 122.773438 136.128906 123.460938 133.988281 C 123.574219 133.742188 123.550781 133.511719 123.394531 133.292969 C 110.964844 119.777344 98.53125 106.261719 86.101562 92.746094 C 85.964844 92.59375 85.6875 92.578125 85.332031 92.703125 C 82.738281 93.609375 80.09375 94.652344 77.421875 95.847656 C 76.105469 96.429688 74.78125 98.304688 75.304688 98.816406 Z M 75.304688 98.816406 " fill-opacity="1" fill-rule="nonzero"/><path fill="#5fa7c9" d="M 59.046875 106.523438 C 56.753906 108.210938 54.5 110.027344 52.308594 111.972656 C 51.183594 112.96875 50.453125 114.546875 50.921875 114.914062 C 70.953125 130.820312 90.980469 146.722656 111.007812 162.625 C 111.476562 162.996094 112.523438 162.320312 112.988281 161.355469 C 113.894531 159.46875 114.757812 157.566406 115.574219 155.648438 C 115.765625 155.191406 115.757812 154.792969 115.542969 154.601562 C 97.121094 138.460938 78.699219 122.320312 60.28125 106.179688 C 60.0625 105.988281 59.59375 106.121094 59.046875 106.523438 Z M 59.046875 106.523438 " fill-opacity="1" fill-rule="nonzero"/><g clip-path="url(#bbff009f93)"><path fill="#004aad" d="M 77.089844 77.832031 C 58.464844 86.773438 41.765625 101.015625 29.277344 118.925781 C 27.675781 121.210938 26.140625 123.5625 24.671875 125.976562 C 26.679688 127.292969 28.691406 128.613281 30.699219 129.933594 C 32.089844 127.585938 33.570312 125.289062 35.140625 123.035156 C 56.207031 92.804688 88.066406 80.324219 110.886719 78.03125 C 134.21875 75.527344 149.414062 81.128906 149.425781 80.980469 C 153.234375 82.050781 156.96875 83.21875 160.632812 84.484375 C 167.230469 86.441406 177.625 89.488281 189.292969 92.945312 C 201.042969 96.410156 211.753906 99.523438 221.621094 101.898438 C 235.121094 105.160156 247.277344 107.054688 259.3125 107.207031 C 271.351562 107.375 283.554688 105.808594 297.152344 102.921875 C 307.089844 100.8125 317.890625 97.996094 329.75 94.867188 C 341.480469 91.75 351.941406 89.015625 358.605469 87.246094 C 362.304688 86.089844 366.074219 85.027344 369.910156 84.070312 C 369.9375 84.0625 369.960938 84.054688 369.984375 84.046875 C 370 84.054688 370.011719 84.0625 370.023438 84.070312 C 370.015625 84.046875 370.011719 84.019531 370.003906 83.996094 C 371.296875 84.128906 386.746094 78.589844 410 82.453125 C 432.761719 86.039062 463.332031 99.023438 483.40625 129.828125 C 485.402344 128.515625 487.398438 127.207031 489.394531 125.894531 C 477.316406 107.46875 460.9375 92.628906 442.503906 83.074219 C 435.832031 79.59375 428.890625 76.792969 421.671875 74.671875 C 414.453125 72.550781 407.097656 71.152344 399.601562 70.472656 C 388.441406 69.445312 377.390625 70.144531 366.449219 72.578125 C 362.542969 73.644531 358.707031 74.8125 354.945312 76.082031 L 354.90625 76.0625 L 354.929688 76.136719 C 354.035156 76.703125 338.070312 81.570312 319.734375 87.550781 C 300.996094 93.324219 279.886719 100.210938 259.410156 100.042969 C 238.566406 99.632812 217.160156 91.925781 198.378906 85.53125 C 180.023438 78.941406 164.292969 73.667969 164.597656 73.480469 L 164.589844 73.484375 C 160.890625 72.121094 157.121094 70.851562 153.273438 69.675781 C 142.40625 66.917969 131.378906 65.886719 120.1875 66.578125 C 112.707031 67.03125 105.339844 68.203125 98.085938 70.097656 C 90.835938 71.988281 83.835938 74.566406 77.089844 77.832031 Z M 149.433594 80.976562 Z M 149.433594 80.976562 " fill-opacity="1" fill-rule="nonzero"/></g><g clip-path="url(#444e9e6a75)"><path fill="#5271ff" d="M 149.816406 112.484375 C 154.289062 101.011719 158.191406 90.910156 160.625 84.488281 C 161.835938 80.816406 163.15625 77.148438 164.589844 73.484375 L 164.597656 73.480469 C 165.03125 73.679688 169.164062 58.035156 185.019531 41.28125 C 200.320312 24.726562 227.34375 7.058594 260.671875 7.703125 C 293.292969 7.945312 319.5625 25.632812 334.527344 42.316406 C 350.023438 59.191406 354.21875 75.0625 354.976562 76.035156 C 354.953125 76.042969 354.929688 76.054688 354.90625 76.0625 C 354.917969 76.070312 354.933594 76.074219 354.945312 76.082031 C 356.292969 79.804688 357.523438 83.535156 358.644531 87.265625 C 360.914062 93.765625 364.542969 103.953125 368.710938 115.535156 C 372.933594 127.230469 376.914062 137.992188 381.046875 147.816406 C 386.699219 161.257812 392.757812 173.132812 400.214844 184.460938 C 402.210938 183.152344 404.207031 181.839844 406.203125 180.527344 C 393.605469 161.175781 386.757812 139.089844 380.664062 119.957031 C 374.949219 101.082031 369.988281 85.15625 369.949219 84.089844 C 369.972656 84.082031 370 84.078125 370.023438 84.070312 L 369.984375 84.046875 C 369.980469 84.023438 369.972656 83.996094 369.96875 83.972656 C 368.894531 80.167969 367.707031 76.363281 366.410156 72.558594 C 362.328125 62.234375 356.816406 52.746094 349.871094 44.085938 C 348.535156 42.417969 347.160156 40.789062 345.734375 39.199219 C 344.3125 37.609375 342.847656 36.054688 341.339844 34.546875 C 339.832031 33.035156 338.28125 31.566406 336.691406 30.144531 C 335.101562 28.71875 333.476562 27.335938 331.808594 26.003906 C 330.144531 24.667969 328.441406 23.378906 326.707031 22.136719 C 324.96875 20.894531 323.199219 19.703125 321.398438 18.558594 C 319.59375 17.414062 317.761719 16.324219 315.898438 15.28125 C 314.035156 14.238281 312.144531 13.246094 310.226562 12.308594 C 308.308594 11.371094 306.367188 10.484375 304.402344 9.65625 C 302.433594 8.824219 300.445312 8.046875 298.4375 7.324219 C 296.429688 6.605469 294.402344 5.9375 292.355469 5.328125 C 290.308594 4.71875 288.246094 4.167969 286.171875 3.671875 C 284.09375 3.175781 282.003906 2.738281 279.90625 2.355469 C 277.804688 1.976562 275.695312 1.65625 273.574219 1.390625 C 271.457031 1.125 269.332031 0.921875 267.203125 0.773438 C 265.074219 0.628906 262.941406 0.539062 260.804688 0.511719 C 258.671875 0.480469 256.535156 0.511719 254.402344 0.597656 C 252.269531 0.6875 250.140625 0.835938 248.015625 1.039062 C 245.890625 1.246094 243.773438 1.511719 241.664062 1.835938 C 239.554688 2.15625 237.453125 2.539062 235.363281 2.976562 C 233.273438 3.414062 231.199219 3.910156 229.136719 4.464844 C 227.074219 5.019531 225.03125 5.628906 223 6.292969 C 220.972656 6.960938 218.964844 7.679688 216.976562 8.457031 C 214.988281 9.234375 213.023438 10.066406 211.078125 10.953125 C 209.136719 11.835938 207.21875 12.777344 205.328125 13.765625 C 203.4375 14.757812 201.578125 15.800781 199.742188 16.894531 C 197.910156 17.988281 196.109375 19.132812 194.339844 20.324219 C 192.566406 21.519531 190.832031 22.761719 189.128906 24.050781 C 187.429688 25.339844 185.765625 26.675781 184.136719 28.054688 C 182.507812 29.4375 180.921875 30.859375 179.371094 32.328125 C 177.820312 33.796875 176.3125 35.308594 174.847656 36.859375 C 173.382812 38.414062 171.960938 40.003906 170.582031 41.632812 C 163.402344 50.105469 157.632812 59.453125 153.28125 69.671875 C 151.882812 73.4375 150.597656 77.207031 149.425781 80.980469 C 149.75 80.859375 144.394531 96.527344 138.164062 115.40625 C 131.535156 134.542969 124.03125 156.886719 110.777344 176.054688 C 109.738281 177.535156 108.675781 178.992188 107.582031 180.421875 C 109.589844 181.742188 111.597656 183.0625 113.609375 184.382812 C 114.644531 182.980469 115.65625 181.574219 116.640625 180.164062 C 124.351562 169.15625 130.691406 157.53125 136.671875 144.308594 C 141.046875 134.648438 145.296875 124.035156 149.816406 112.484375 Z M 149.433594 80.976562 Z M 149.433594 80.976562 " fill-opacity="1" fill-rule="nonzero"/></g><path fill="#004aad" d="M 213.910156 90.738281 C 188.8125 82.40625 164.609375 73.5625 164.597656 73.480469 L 164.589844 73.484375 C 160.890625 72.121094 157.121094 70.851562 153.273438 69.675781 C 142.40625 66.917969 131.378906 65.886719 120.1875 66.578125 C 120.03125 66.585938 119.878906 66.597656 119.722656 66.609375 C 113.546875 70.609375 107.519531 74.910156 101.644531 79.507812 C 129.914062 73.914062 149.492188 81.191406 149.425781 80.980469 C 153.234375 82.050781 156.96875 83.21875 160.632812 84.484375 C 167.230469 86.441406 177.625 89.488281 189.292969 92.945312 C 198.90625 95.777344 207.828125 98.378906 216.15625 100.53125 C 215.40625 97.265625 214.660156 94.003906 213.910156 90.738281 Z M 149.433594 80.976562 Z M 149.433594 80.976562 " fill-opacity="1" fill-rule="nonzero"/></svg>